<?xml version="1.0" encoding="UTF-8"?>
<svg version="1.1" xmlns="http://www.w3.org/2000/svg" width="1272" height="1066">
<path d="M0 0 C2.58006174 0.03144619 5.15951062 0.04101416 7.73974609 0.046875 C9.39730559 0.05603688 11.05485893 0.06641003 12.71240234 0.078125 C13.47499359 0.08237488 14.23758484 0.08662476 15.02328491 0.09100342 C19.17506024 0.14628085 23.11452396 0.47747613 27.18896484 1.28125 C27.18896484 1.94125 27.18896484 2.60125 27.18896484 3.28125 C29.16896484 3.28125 31.14896484 3.28125 33.18896484 3.28125 C33.18896484 3.94125 33.18896484 4.60125 33.18896484 5.28125 C34.48833984 5.1884375 34.48833984 5.1884375 35.81396484 5.09375 C39.63095517 5.30580502 41.89974021 6.40169307 45.18896484 8.28125 C45.18896484 8.94125 45.18896484 9.60125 45.18896484 10.28125 C47.16896484 10.61125 49.14896484 10.94125 51.18896484 11.28125 C51.18896484 11.94125 51.18896484 12.60125 51.18896484 13.28125 C52.13771484 13.590625 53.08646484 13.9 54.06396484 14.21875 C57.18896484 15.28125 57.18896484 15.28125 59.18896484 16.28125 C59.18896484 16.94125 59.18896484 17.60125 59.18896484 18.28125 C59.84896484 18.28125 60.50896484 18.28125 61.18896484 18.28125 C61.18896484 18.94125 61.18896484 19.60125 61.18896484 20.28125 C62.50896484 20.61125 63.82896484 20.94125 65.18896484 21.28125 C65.18896484 21.94125 65.18896484 22.60125 65.18896484 23.28125 C65.84896484 23.28125 66.50896484 23.28125 67.18896484 23.28125 C67.18896484 23.94125 67.18896484 24.60125 67.18896484 25.28125 C69.16896484 26.27125 69.16896484 26.27125 71.18896484 27.28125 C71.18896484 28.27125 71.18896484 29.26125 71.18896484 30.28125 C73.16896484 31.27125 73.16896484 31.27125 75.18896484 32.28125 C75.18896484 33.27125 75.18896484 34.26125 75.18896484 35.28125 C75.76646484 35.549375 76.34396484 35.8175 76.93896484 36.09375 C79.18896484 37.28125 79.18896484 37.28125 81.06396484 38.71875 C83.62404313 40.60116051 86.32632233 41.9149888 89.18896484 43.28125 C89.18896484 42.62125 89.18896484 41.96125 89.18896484 41.28125 C103.37896484 41.28125 117.56896484 41.28125 132.18896484 41.28125 C132.18896484 41.94125 132.18896484 42.60125 132.18896484 43.28125 C134.16896484 43.28125 136.14896484 43.28125 138.18896484 43.28125 C138.18896484 43.94125 138.18896484 44.60125 138.18896484 45.28125 C141.48896484 45.61125 144.78896484 45.94125 148.18896484 46.28125 C148.18896484 46.94125 148.18896484 47.60125 148.18896484 48.28125 C149.50896484 48.28125 150.82896484 48.28125 152.18896484 48.28125 C152.18896484 48.94125 152.18896484 49.60125 152.18896484 50.28125 C154.16896484 50.61125 156.14896484 50.94125 158.18896484 51.28125 C158.18896484 51.94125 158.18896484 52.60125 158.18896484 53.28125 C158.84896484 53.28125 159.50896484 53.28125 160.18896484 53.28125 C160.18896484 53.94125 160.18896484 54.60125 160.18896484 55.28125 C161.50896484 55.61125 162.82896484 55.94125 164.18896484 56.28125 C164.18896484 56.94125 164.18896484 57.60125 164.18896484 58.28125 C164.84896484 58.28125 165.50896484 58.28125 166.18896484 58.28125 C166.18896484 58.94125 166.18896484 59.60125 166.18896484 60.28125 C167.50896484 60.61125 168.82896484 60.94125 170.18896484 61.28125 C170.18896484 61.94125 170.18896484 62.60125 170.18896484 63.28125 C170.84896484 63.28125 171.50896484 63.28125 172.18896484 63.28125 C172.18896484 63.94125 172.18896484 64.60125 172.18896484 65.28125 C173.50896484 65.61125 174.82896484 65.94125 176.18896484 66.28125 C176.18896484 67.60125 176.18896484 68.92125 176.18896484 70.28125 C177.50896484 70.61125 178.82896484 70.94125 180.18896484 71.28125 C180.18896484 72.60125 180.18896484 73.92125 180.18896484 75.28125 C180.84896484 75.28125 181.50896484 75.28125 182.18896484 75.28125 C182.18896484 76.27125 182.18896484 77.26125 182.18896484 78.28125 C182.84896484 78.28125 183.50896484 78.28125 184.18896484 78.28125 C184.18896484 78.94125 184.18896484 79.60125 184.18896484 80.28125 C184.84896484 80.28125 185.50896484 80.28125 186.18896484 80.28125 C186.18896484 81.93125 186.18896484 83.58125 186.18896484 85.28125 C186.84896484 85.28125 187.50896484 85.28125 188.18896484 85.28125 C188.18896484 86.27125 188.18896484 87.26125 188.18896484 88.28125 C188.84896484 88.28125 189.50896484 88.28125 190.18896484 88.28125 C190.18896484 89.93125 190.18896484 91.58125 190.18896484 93.28125 C190.84896484 93.28125 191.50896484 93.28125 192.18896484 93.28125 C192.18896484 94.93125 192.18896484 96.58125 192.18896484 98.28125 C192.84896484 98.28125 193.50896484 98.28125 194.18896484 98.28125 C194.18896484 99.93125 194.18896484 101.58125 194.18896484 103.28125 C194.84896484 103.28125 195.50896484 103.28125 196.18896484 103.28125 C196.18896484 107.24125 196.18896484 111.20125 196.18896484 115.28125 C196.84896484 115.28125 197.50896484 115.28125 198.18896484 115.28125 C198.18896484 118.58125 198.18896484 121.88125 198.18896484 125.28125 C198.84896484 125.28125 199.50896484 125.28125 200.18896484 125.28125 C200.18896484 128.25125 200.18896484 131.22125 200.18896484 134.28125 C199.52896484 134.28125 198.86896484 134.28125 198.18896484 134.28125 C198.18896484 153.09125 198.18896484 171.90125 198.18896484 191.28125 C197.52896484 191.28125 196.86896484 191.28125 196.18896484 191.28125 C196.18896484 192.27125 196.18896484 193.26125 196.18896484 194.28125 C195.52896484 194.28125 194.86896484 194.28125 194.18896484 194.28125 C194.18896484 194.94125 194.18896484 195.60125 194.18896484 196.28125 C167.12896484 196.28125 140.06896484 196.28125 112.18896484 196.28125 C112.18896484 196.94125 112.18896484 197.60125 112.18896484 198.28125 C105.91896484 198.28125 99.64896484 198.28125 93.18896484 198.28125 C93.18896484 197.62125 93.18896484 196.96125 93.18896484 196.28125 C89.88896484 196.28125 86.58896484 196.28125 83.18896484 196.28125 C83.18896484 195.62125 83.18896484 194.96125 83.18896484 194.28125 C81.54266157 194.42167877 79.89692305 194.56874329 78.25146484 194.71875 C77.33494141 194.79996094 76.41841797 194.88117188 75.47412109 194.96484375 C73.22736753 195.04169976 73.22736753 195.04169976 72.18896484 196.28125 C69.85563151 196.61458333 67.52229818 196.94791667 65.18896484 197.28125 C64.85896484 197.61125 64.52896484 197.94125 64.18896484 198.28125 C62.6272374 198.36810603 61.0616714 198.38827219 59.49755859 198.37890625 C58.55332031 198.37568359 57.60908203 198.37246094 56.63623047 198.36914062 C55.64300781 198.36076172 54.64978516 198.35238281 53.62646484 198.34375 C52.629375 198.33923828 51.63228516 198.33472656 50.60498047 198.33007812 C48.13291636 198.31825007 45.66096966 198.30176849 43.18896484 198.28125 C43.18896484 197.62125 43.18896484 196.96125 43.18896484 196.28125 C39.88896484 196.28125 36.58896484 196.28125 33.18896484 196.28125 C33.18896484 195.62125 33.18896484 194.96125 33.18896484 194.28125 C25.92896484 194.28125 18.66896484 194.28125 11.18896484 194.28125 C11.18896484 194.94125 11.18896484 195.60125 11.18896484 196.28125 C7.88896484 196.28125 4.58896484 196.28125 1.18896484 196.28125 C1.18896484 196.94125 1.18896484 197.60125 1.18896484 198.28125 C-6.07103516 198.28125 -13.33103516 198.28125 -20.81103516 198.28125 C-20.81103516 197.62125 -20.81103516 196.96125 -20.81103516 196.28125 C-24.11103516 196.28125 -27.41103516 196.28125 -30.81103516 196.28125 C-30.81103516 196.94125 -30.81103516 197.60125 -30.81103516 198.28125 C-31.47103516 198.28125 -32.13103516 198.28125 -32.81103516 198.28125 C-32.81103516 205.87125 -32.81103516 213.46125 -32.81103516 221.28125 C-33.47103516 221.28125 -34.13103516 221.28125 -34.81103516 221.28125 C-34.81103516 221.94125 -34.81103516 222.60125 -34.81103516 223.28125 C-38.57258083 225.16202284 -43.1092679 224.50927645 -47.24853516 224.53125 C-48.69969727 224.5621875 -48.69969727 224.5621875 -50.18017578 224.59375 C-51.57333008 224.60148437 -51.57333008 224.60148437 -52.99462891 224.609375 C-53.84597412 224.6187207 -54.69731934 224.62806641 -55.57446289 224.63769531 C-57.81103516 224.28125 -57.81103516 224.28125 -59.56640625 223.01635742 C-61.03355286 220.97104339 -61.30335898 219.68530504 -61.54150391 217.19140625 C-61.66235352 216.01481445 -61.66235352 216.01481445 -61.78564453 214.81445312 C-61.85589844 213.99912109 -61.92615234 213.18378906 -61.99853516 212.34375 C-62.08039063 211.53228516 -62.16224609 210.72082031 -62.24658203 209.88476562 C-62.5948895 206.31680933 -62.81103516 202.87353031 -62.81103516 199.28125 C-74.19603516 198.78625 -74.19603516 198.78625 -85.81103516 198.28125 C-85.81103516 197.62125 -85.81103516 196.96125 -85.81103516 196.28125 C-88.45103516 196.28125 -91.09103516 196.28125 -93.81103516 196.28125 C-93.81103516 195.62125 -93.81103516 194.96125 -93.81103516 194.28125 C-98.43103516 194.28125 -103.05103516 194.28125 -107.81103516 194.28125 C-107.81103516 194.94125 -107.81103516 195.60125 -107.81103516 196.28125 C-110.45103516 196.28125 -113.09103516 196.28125 -115.81103516 196.28125 C-115.81103516 196.94125 -115.81103516 197.60125 -115.81103516 198.28125 C-123.07103516 198.28125 -130.33103516 198.28125 -137.81103516 198.28125 C-137.81103516 197.62125 -137.81103516 196.96125 -137.81103516 196.28125 C-139.79103516 196.28125 -141.77103516 196.28125 -143.81103516 196.28125 C-143.81103516 195.62125 -143.81103516 194.96125 -143.81103516 194.28125 C-145.79103516 193.95125 -147.77103516 193.62125 -149.81103516 193.28125 C-149.81103516 192.62125 -149.81103516 191.96125 -149.81103516 191.28125 C-150.47103516 191.28125 -151.13103516 191.28125 -151.81103516 191.28125 C-151.81103516 189.63125 -151.81103516 187.98125 -151.81103516 186.28125 C-152.47103516 186.28125 -153.13103516 186.28125 -153.81103516 186.28125 C-153.81103516 179.68125 -153.81103516 173.08125 -153.81103516 166.28125 C-153.15103516 166.28125 -152.49103516 166.28125 -151.81103516 166.28125 C-151.81103516 162.32125 -151.81103516 158.36125 -151.81103516 154.28125 C-152.47103516 153.95125 -153.13103516 153.62125 -153.81103516 153.28125 C-153.81103516 149.98125 -153.81103516 146.68125 -153.81103516 143.28125 C-153.15103516 143.28125 -152.49103516 143.28125 -151.81103516 143.28125 C-151.81103516 137.67125 -151.81103516 132.06125 -151.81103516 126.28125 C-151.15103516 126.28125 -150.49103516 126.28125 -149.81103516 126.28125 C-149.81103516 124.63125 -149.81103516 122.98125 -149.81103516 121.28125 C-149.15103516 121.28125 -148.49103516 121.28125 -147.81103516 121.28125 C-147.81103516 119.63125 -147.81103516 117.98125 -147.81103516 116.28125 C-147.15103516 116.28125 -146.49103516 116.28125 -145.81103516 116.28125 C-145.81103516 114.63125 -145.81103516 112.98125 -145.81103516 111.28125 C-145.15103516 111.28125 -144.49103516 111.28125 -143.81103516 111.28125 C-143.81103516 110.29125 -143.81103516 109.30125 -143.81103516 108.28125 C-143.15103516 108.28125 -142.49103516 108.28125 -141.81103516 108.28125 C-141.81103516 106.63125 -141.81103516 104.98125 -141.81103516 103.28125 C-141.15103516 103.28125 -140.49103516 103.28125 -139.81103516 103.28125 C-139.81103516 102.62125 -139.81103516 101.96125 -139.81103516 101.28125 C-139.15103516 101.28125 -138.49103516 101.28125 -137.81103516 101.28125 C-137.81103516 100.29125 -137.81103516 99.30125 -137.81103516 98.28125 C-137.15103516 98.28125 -136.49103516 98.28125 -135.81103516 98.28125 C-135.81103516 97.62125 -135.81103516 96.96125 -135.81103516 96.28125 C-133.83103516 95.78625 -133.83103516 95.78625 -131.81103516 95.28125 C-131.81103516 94.62125 -131.81103516 93.96125 -131.81103516 93.28125 C-131.15103516 93.28125 -130.49103516 93.28125 -129.81103516 93.28125 C-129.81103516 92.62125 -129.81103516 91.96125 -129.81103516 91.28125 C-126.84103516 90.78625 -126.84103516 90.78625 -123.81103516 90.28125 C-123.81103516 89.62125 -123.81103516 88.96125 -123.81103516 88.28125 C-122.49103516 88.28125 -121.17103516 88.28125 -119.81103516 88.28125 C-119.81103516 87.62125 -119.81103516 86.96125 -119.81103516 86.28125 C-117.17103516 85.95125 -114.53103516 85.62125 -111.81103516 85.28125 C-111.81103516 84.62125 -111.81103516 83.96125 -111.81103516 83.28125 C-108.51103516 83.28125 -105.21103516 83.28125 -101.81103516 83.28125 C-101.81103516 82.62125 -101.81103516 81.96125 -101.81103516 81.28125 C-99.17103516 80.95125 -96.53103516 80.62125 -93.81103516 80.28125 C-93.81103516 79.62125 -93.81103516 78.96125 -93.81103516 78.28125 C-93.15103516 78.28125 -92.49103516 78.28125 -91.81103516 78.28125 C-91.81103516 77.29125 -91.81103516 76.30125 -91.81103516 75.28125 C-91.15103516 75.28125 -90.49103516 75.28125 -89.81103516 75.28125 C-89.81103516 73.96125 -89.81103516 72.64125 -89.81103516 71.28125 C-89.15103516 71.28125 -88.49103516 71.28125 -87.81103516 71.28125 C-87.81103516 69.30125 -87.81103516 67.32125 -87.81103516 65.28125 C-87.15103516 65.28125 -86.49103516 65.28125 -85.81103516 65.28125 C-85.81103516 62.97125 -85.81103516 60.66125 -85.81103516 58.28125 C-85.15103516 58.28125 -84.49103516 58.28125 -83.81103516 58.28125 C-83.81103516 57.29125 -83.81103516 56.30125 -83.81103516 55.28125 C-83.15103516 55.28125 -82.49103516 55.28125 -81.81103516 55.28125 C-81.81103516 53.63125 -81.81103516 51.98125 -81.81103516 50.28125 C-81.15103516 50.28125 -80.49103516 50.28125 -79.81103516 50.28125 C-79.81103516 48.96125 -79.81103516 47.64125 -79.81103516 46.28125 C-79.15103516 46.28125 -78.49103516 46.28125 -77.81103516 46.28125 C-77.81103516 45.29125 -77.81103516 44.30125 -77.81103516 43.28125 C-77.15103516 43.28125 -76.49103516 43.28125 -75.81103516 43.28125 C-75.81103516 42.29125 -75.81103516 41.30125 -75.81103516 40.28125 C-75.15103516 40.28125 -74.49103516 40.28125 -73.81103516 40.28125 C-73.81103516 38.96125 -73.81103516 37.64125 -73.81103516 36.28125 C-72.49103516 35.95125 -71.17103516 35.62125 -69.81103516 35.28125 C-69.81103516 33.96125 -69.81103516 32.64125 -69.81103516 31.28125 C-68.18713038 29.89615475 -66.50963182 28.57366051 -64.81103516 27.28125 C-63.19624957 25.45326533 -61.66220401 23.57981563 -60.14306641 21.671875 C-59.70349609 21.21296875 -59.26392578 20.7540625 -58.81103516 20.28125 C-58.15103516 20.28125 -57.49103516 20.28125 -56.81103516 20.28125 C-56.81103516 19.62125 -56.81103516 18.96125 -56.81103516 18.28125 C-53.90554633 16.23955515 -52.4096147 15.28125 -48.81103516 15.28125 C-48.81103516 14.62125 -48.81103516 13.96125 -48.81103516 13.28125 C-48.15103516 13.28125 -47.49103516 13.28125 -46.81103516 13.28125 C-46.81103516 12.62125 -46.81103516 11.96125 -46.81103516 11.28125 C-43.84103516 10.78625 -43.84103516 10.78625 -40.81103516 10.28125 C-40.81103516 9.62125 -40.81103516 8.96125 -40.81103516 8.28125 C-39.49103516 8.28125 -38.17103516 8.28125 -36.81103516 8.28125 C-36.81103516 7.62125 -36.81103516 6.96125 -36.81103516 6.28125 C-34.17103516 5.95125 -31.53103516 5.62125 -28.81103516 5.28125 C-28.81103516 4.62125 -28.81103516 3.96125 -28.81103516 3.28125 C-19.17707181 0.07234887 -10.02657545 -0.12328546 0 0 Z M-150.81103516 159.28125 C-149.81103516 161.28125 -149.81103516 161.28125 -149.81103516 161.28125 Z " fill="#2EB9F5" transform="translate(782.81103515625,395.71875)"/>
<path d="M0 0 C4.79331434 3.71663034 7.54405918 8.22695685 9.99609375 13.71484375 C10.31707031 14.43027344 10.63804687 15.14570312 10.96875 15.8828125 C15.88343058 29.16387955 14.07285978 47.44679734 8.37109375 60.08984375 C5.52718575 65.39522713 2.37003706 68.94511116 -3.00390625 71.71484375 C-6.00390625 72.58984375 -6.00390625 72.58984375 -8.00390625 72.71484375 C-8.00390625 73.37484375 -8.00390625 74.03484375 -8.00390625 74.71484375 C-15.26390625 74.71484375 -22.52390625 74.71484375 -30.00390625 74.71484375 C-30.00390625 74.05484375 -30.00390625 73.39484375 -30.00390625 72.71484375 C-33.30390625 72.71484375 -36.60390625 72.71484375 -40.00390625 72.71484375 C-40.00390625 73.37484375 -40.00390625 74.03484375 -40.00390625 74.71484375 C-40.66390625 74.71484375 -41.32390625 74.71484375 -42.00390625 74.71484375 C-42.00390625 82.30484375 -42.00390625 89.89484375 -42.00390625 97.71484375 C-42.66390625 97.71484375 -43.32390625 97.71484375 -44.00390625 97.71484375 C-44.00390625 98.37484375 -44.00390625 99.03484375 -44.00390625 99.71484375 C-47.76545193 101.59561659 -52.30213899 100.9428702 -56.44140625 100.96484375 C-57.40884766 100.98546875 -58.37628906 101.00609375 -59.37304688 101.02734375 C-60.76620117 101.03507813 -60.76620117 101.03507813 -62.1875 101.04296875 C-63.03884521 101.05231445 -63.89019043 101.06166016 -64.76733398 101.07128906 C-67.55401526 100.62717219 -68.26691281 99.90048681 -70.00390625 97.71484375 C-70.37304974 95.76834583 -70.37304974 95.76834583 -70.3646698 93.51972961 C-70.36879379 92.66577606 -70.37291779 91.81182251 -70.37716675 90.93199158 C-70.36638092 89.99835281 -70.35559509 89.06471405 -70.34448242 88.1027832 C-70.3449205 87.1172345 -70.34535858 86.13168579 -70.34580994 85.11627197 C-70.34371718 81.85335593 -70.32036278 78.59095146 -70.296875 75.328125 C-70.29128079 73.06797059 -70.28700987 70.80781254 -70.28401184 68.5476532 C-70.27254935 62.59469586 -70.24306991 56.6419576 -70.2098999 50.68908691 C-70.17922937 44.61632247 -70.16551295 38.54352267 -70.15039062 32.47070312 C-70.11820166 20.55197152 -70.0654221 8.63346011 -70.00390625 -3.28515625 C-62.08390625 -3.28515625 -54.16390625 -3.28515625 -46.00390625 -3.28515625 C-45.01390625 -0.31515625 -44.02390625 2.65484375 -43.00390625 5.71484375 C-42.30265625 4.97234375 -41.60140625 4.22984375 -40.87890625 3.46484375 C-29.49380362 -7.42525442 -13.24717977 -8.49575466 0 0 Z " fill="#000101" transform="translate(792.00390625,519.28515625)"/>
<path d="M0 0 C4.3445118 4.14169675 6.85417655 7.97521169 7.28710938 13.98657227 C7.3151242 15.59638388 7.33342676 17.20638398 7.34375 18.81640625 C7.3583728 19.66927719 7.37299561 20.52214813 7.38806152 21.40086365 C7.45024774 25.04402957 7.48996668 28.6873626 7.53173828 32.33081055 C7.5654501 34.99285684 7.61056007 37.65454302 7.65625 40.31640625 C7.66416565 41.55397423 7.66416565 41.55397423 7.67224121 42.81654358 C7.74028679 46.71064577 7.79190322 48.68785483 10 52 C12.31 52.33 14.62 52.66 17 53 C17 58.61 17 64.22 17 70 C13.31422423 71.84288788 12.27877347 72.24701045 8.453125 72.1953125 C7.18662109 72.18564453 7.18662109 72.18564453 5.89453125 72.17578125 C5.02183594 72.15902344 4.14914062 72.14226562 3.25 72.125 C1.91775391 72.11146484 1.91775391 72.11146484 0.55859375 72.09765625 C-1.62788058 72.07414577 -3.81380094 72.04128499 -6 72 C-6 71.34 -6 70.68 -6 70 C-8.64 70 -11.28 70 -14 70 C-14 69.34 -14 68.68 -14 68 C-18.62 68 -23.24 68 -28 68 C-28 68.66 -28 69.32 -28 70 C-30.64 70 -33.28 70 -36 70 C-36 70.66 -36 71.32 -36 72 C-43.26 72 -50.52 72 -58 72 C-58 71.34 -58 70.68 -58 70 C-59.98 70 -61.96 70 -64 70 C-64 69.34 -64 68.68 -64 68 C-65.98 67.67 -67.96 67.34 -70 67 C-70 66.34 -70 65.68 -70 65 C-70.66 65 -71.32 65 -72 65 C-72 63.35 -72 61.7 -72 60 C-72.66 60 -73.32 60 -74 60 C-74 53.4 -74 46.8 -74 40 C-73.34 40 -72.68 40 -72 40 C-72 36.04 -72 32.08 -72 28 C-72.66 27.67 -73.32 27.34 -74 27 C-74 23.7 -74 20.4 -74 17 C-73.34 17 -72.68 17 -72 17 C-72.061875 15.783125 -72.12375 14.56625 -72.1875 13.3125 C-72.14398025 8.35124842 -70.78827904 5.92853622 -67.40625 2.28125 C-51.90002286 -12.71657625 -16.98157505 -12.62096183 0 0 Z M-71 33 C-70 35 -70 35 -70 35 Z " fill="#000102" transform="translate(703,522)"/>
<path d="M0 0 C6.26568794 5.25700712 9.48363555 11.64460979 10.26927185 19.79270935 C10.36139709 22.91540502 10.36378552 26.02459364 10.328125 29.1484375 C10.32625183 30.28278229 10.32437866 31.41712708 10.32244873 32.58584595 C10.31576094 34.96757984 10.30191231 37.34930337 10.28125 39.73095703 C10.24991816 43.38454342 10.24025622 47.0376984 10.234375 50.69140625 C10.22521107 53.01042196 10.21483725 55.32943326 10.203125 57.6484375 C10.19887512 58.74215668 10.19462524 59.83587585 10.19024658 60.96273804 C10.18063904 61.97454132 10.17103149 62.9863446 10.16113281 64.02880859 C10.15430481 64.91877533 10.14747681 65.80874207 10.14044189 66.72567749 C10 69 10 69 9 72 C8.34 72 7.68 72 7 72 C7 72.66 7 73.32 7 74 C-18.41 74 -43.82 74 -70 74 C-70 48.92 -70 23.84 -70 -2 C-62.08 -2 -54.16 -2 -46 -2 C-45.67 1.63 -45.34 5.26 -45 9 C-44.34 9 -43.68 9 -43 9 C-42.75507812 8.40316406 -42.51015625 7.80632813 -42.2578125 7.19140625 C-39.24648305 1.9449596 -32.00470536 -1.64426488 -26.35546875 -3.52734375 C-17.3898389 -5.32641707 -7.85727746 -4.98095267 0 0 Z " fill="#000101" transform="translate(970,518)"/>
<path d="M0 0 C5.45177733 4.72487368 8.06576809 8.87700072 9 16 C9.13389831 18.72973103 9.23035005 21.44102497 9.28125 24.171875 C9.29965942 24.93550354 9.31806885 25.69913208 9.33703613 26.48590088 C9.4152874 29.73216569 9.48371707 32.97861506 9.55224609 36.22509766 C9.60389457 38.60329655 9.66113138 40.98131447 9.71875 43.359375 C9.73232544 44.09581238 9.74590088 44.83224976 9.7598877 45.59100342 C9.79189033 49.42266888 9.79189033 49.42266888 11 53 C13.64 53.33 16.28 53.66 19 54 C19 59.61 19 65.22 19 71 C17.68 71 16.36 71 15 71 C15 71.66 15 72.32 15 73 C8.73 73 2.46 73 -4 73 C-4 72.34 -4 71.68 -4 71 C-7.3 71 -10.6 71 -14 71 C-14 70.34 -14 69.68 -14 69 C-15.64630328 69.14042877 -17.29204179 69.28749329 -18.9375 69.4375 C-19.85402344 69.51871094 -20.77054688 69.59992188 -21.71484375 69.68359375 C-23.96159732 69.76044976 -23.96159732 69.76044976 -25 71 C-27.33333333 71.33333333 -29.66666667 71.66666667 -32 72 C-32.33 72.33 -32.66 72.66 -33 73 C-34.56172745 73.08685603 -36.12729344 73.10702219 -37.69140625 73.09765625 C-38.63564453 73.09443359 -39.57988281 73.09121094 -40.55273438 73.08789062 C-41.54595703 73.07951172 -42.53917969 73.07113281 -43.5625 73.0625 C-44.55958984 73.05798828 -45.55667969 73.05347656 -46.58398438 73.04882812 C-49.05604849 73.03700007 -51.52799518 73.02051849 -54 73 C-54 72.34 -54 71.68 -54 71 C-57.3 71 -60.6 71 -64 71 C-64 70.34 -64 69.68 -64 69 C-64.5775 68.95875 -65.155 68.9175 -65.75 68.875 C-69.16998433 67.54500609 -70.20251232 65.09911668 -72 62 C-74.10889597 55.67331208 -74.26420742 46.61426935 -72.05859375 40.30859375 C-67.79587287 33.26641851 -61.39935734 29.52285446 -53.75 26.875 C-42.67586201 24.29103447 -31.30122463 24.89307429 -20 25 C-20.82995477 19.03801664 -20.82995477 19.03801664 -23.74609375 13.95703125 C-26.64508342 12.7260911 -28.91761344 12.63683888 -32.0625 12.6875 C-33.10535156 12.69136719 -34.14820313 12.69523438 -35.22265625 12.69921875 C-38.21003164 12.80643392 -38.21003164 12.80643392 -41 15 C-41.33 16.32 -41.66 17.64 -42 19 C-51.57 19 -61.14 19 -71 19 C-71 8.80225989 -71 8.80225989 -67 4 C-51.42149776 -10.96828441 -17.6953534 -12.06891822 0 0 Z " fill="#000202" transform="translate(880,521)"/>
<path d="M0 0 C7.92 0 15.84 0 24 0 C24 0.66 24 1.32 24 2 C24.66 2 25.32 2 26 2 C26 11.24 26 20.48 26 30 C26.66 30 27.32 30 28 30 C28 30.66 28 31.32 28 32 C29.98 32 31.96 32 34 32 C34 31.34 34 30.68 34 30 C39.18172043 28.4814691 44.45573987 28.77558453 49.8125 28.75 C51.41448242 28.7190625 51.41448242 28.7190625 53.04882812 28.6875 C59.12685347 28.65742937 63.69851945 28.90258802 69 32 C70.4375 34.6875 70.4375 34.6875 71 37 C71.66 37 72.32 37 73 37 C73 37.99 73 38.98 73 40 C73.66 40 74.32 40 75 40 C75 52.21 75 64.42 75 77 C75.66 77 76.32 77 77 77 C77 85.25 77 93.5 77 102 C75.68 102.33 74.36 102.66 73 103 C73 103.66 73 104.32 73 105 C66.07 105 59.14 105 52 105 C52 104.34 52 103.68 52 103 C51.34 103 50.68 103 50 103 C48.41621879 88.67287151 49.33693432 74.36341604 50 60 C49.34 60 48.68 60 48 60 C48 58.35 48 56.7 48 55 C47.34 55 46.68 55 46 55 C46 54.01 46 53.02 46 52 C45.34 52 44.68 52 44 52 C44 51.34 44 50.68 44 50 C40.7 50 37.4 50 34 50 C34 50.66 34 51.32 34 52 C33.01 52.33 32.02 52.66 31 53 C30.505 53.99 30.505 53.99 30 55 C29.34 55 28.68 55 28 55 C28 55.66 28 56.32 28 57 C27.34 57 26.68 57 26 57 C26 71.85 26 86.7 26 102 C24.02 102.495 24.02 102.495 22 103 C22 103.66 22 104.32 22 105 C14.74 105 7.48 105 0 105 C0 104.34 0 103.68 0 103 C-0.66 103 -1.32 103 -2 103 C-2.02505615 102.04633545 -2.0501123 101.0926709 -2.07592773 100.11010742 C-2.17012071 96.57090893 -2.27031231 93.03190125 -2.37231445 89.49291992 C-2.41561833 87.96138982 -2.45729667 86.42981285 -2.49731445 84.89819336 C-2.55512732 82.69630818 -2.61878969 80.49465789 -2.68359375 78.29296875 C-2.70030624 77.60849167 -2.71701874 76.92401459 -2.73423767 76.21879578 C-2.8273555 73.22879896 -3.04687437 70.85937689 -4 68 C-4.08387868 66.03732912 -4.10728912 64.07186069 -4.09765625 62.10742188 C-4.09270142 60.29038757 -4.09270142 60.29038757 -4.08764648 58.43664551 C-4.07934814 57.12723999 -4.0710498 55.81783447 -4.0625 54.46875 C-4.05809426 53.11259128 -4.05427765 51.75643053 -4.05102539 50.40026855 C-4.03765877 45.36961488 -4.01344122 40.33902368 -3.98962402 35.30841064 C-3.9699041 31.05591688 -3.95425942 26.80344616 -3.94406128 22.55091858 C-3.93757731 20.55504643 -3.92500214 18.55919709 -3.91235352 16.56335449 C-3.90905029 15.35199829 -3.90574707 14.14064209 -3.90234375 12.89257812 C-3.89710693 11.82463013 -3.89187012 10.75668213 -3.88647461 9.65637207 C-3.88237294 6.89382707 -3.88237294 6.89382707 -5 4 C-4.67 3.34 -4.34 2.68 -4 2 C-2.68 2 -1.36 2 0 2 C0 1.34 0 0.68 0 0 Z " fill="#010101" transform="translate(327,487)"/>
<path d="M0 0 C0 0.66 0 1.32 0 2 C0.66 2 1.32 2 2 2 C2 2.66 2 3.32 2 4 C4.97 4.495 4.97 4.495 8 5 C8 5.66 8 6.32 8 7 C8.66 7 9.32 7 10 7 C10 7.66 10 8.32 10 9 C11.32 9.33 12.64 9.66 14 10 C14 10.66 14 11.32 14 12 C14.66 12 15.32 12 16 12 C16 13.65 16 15.3 16 17 C16.66 17 17.32 17 18 17 C18 17.99 18 18.98 18 20 C18.66 20.33 19.32 20.66 20 21 C20 27.93 20 34.86 20 42 C14.41195622 44.23521751 14.41195622 44.23521751 10.78930664 43.63110352 C5.9536079 42.95311083 1.2482829 42.87196043 -3.62890625 42.90234375 C-4.94156715 42.90446617 -4.94156715 42.90446617 -6.28074646 42.90663147 C-9.04136762 42.91217281 -11.80190388 42.92471388 -14.5625 42.9375 C-16.44856653 42.9425226 -18.33463434 42.94708417 -20.22070312 42.95117188 C-24.81383417 42.96212293 -29.40690275 42.97934616 -34 43 C-34 43.66 -34 44.32 -34 45 C-34.66 45 -35.32 45 -36 45 C-36 47.31 -36 49.62 -36 52 C-35.34 52 -34.68 52 -34 52 C-34 52.66 -34 53.32 -34 54 C-32.68 54.33 -31.36 54.66 -30 55 C-30 55.66 -30 56.32 -30 57 C-22.90369546 59.06821355 -22.90369546 59.06821355 -16 57 C-14.68 57 -13.36 57 -12 57 C-12 56.34 -12 55.68 -12 55 C-11.34 55 -10.68 55 -10 55 C-10 54.01 -10 53.02 -10 52 C-9.34 52 -8.68 52 -8 52 C-8 51.34 -8 50.68 -8 50 C-2.9580812 46.6387208 3.06402241 47.26922022 9 47 C9.8559375 46.95746094 10.711875 46.91492188 11.59375 46.87109375 C15.32591829 46.76664874 16.80384538 46.86923025 20 49 C20.36328125 51.0234375 20.36328125 51.0234375 20.3125 53.375 C20.30863281 54.14585937 20.30476563 54.91671875 20.30078125 55.7109375 C19.97634488 58.18002469 19.23105029 59.85179272 18 62 C17.34 62 16.68 62 16 62 C16 62.99 16 63.98 16 65 C15.34 65 14.68 65 14 65 C14 65.99 14 66.98 14 68 C13.34 68 12.68 68 12 68 C12 68.66 12 69.32 12 70 C10.68 70 9.36 70 8 70 C8 70.66 8 71.32 8 72 C5.29120665 73.35439668 2.99066732 73.06501451 0 73 C0 73.66 0 74.32 0 75 C-1.98 75 -3.96 75 -6 75 C-6 75.66 -6 76.32 -6 77 C-15.24 77 -24.48 77 -34 77 C-34 76.34 -34 75.68 -34 75 C-35.98 75 -37.96 75 -40 75 C-40 74.34 -40 73.68 -40 73 C-40.94875 73.020625 -41.8975 73.04125 -42.875 73.0625 C-46 73 -46 73 -48 72 C-48 71.34 -48 70.68 -48 70 C-49.32 70 -50.64 70 -52 70 C-52 69.34 -52 68.68 -52 68 C-53.32 67.67 -54.64 67.34 -56 67 C-56 66.34 -56 65.68 -56 65 C-56.66 65 -57.32 65 -58 65 C-58 64.01 -58 63.02 -58 62 C-58.66 62 -59.32 62 -60 62 C-60 60.68 -60 59.36 -60 58 C-60.66 58 -61.32 58 -62 58 C-62 57.01 -62 56.02 -62 55 C-62.66 55 -63.32 55 -64 55 C-64.04950115 50.23113513 -64.08576738 45.46242041 -64.10986328 40.69335938 C-64.11991023 39.07158808 -64.13355015 37.44983484 -64.15087891 35.828125 C-64.17518493 33.49474626 -64.18649613 31.1616074 -64.1953125 28.828125 C-64.20563507 28.10506165 -64.21595764 27.38199829 -64.22659302 26.63702393 C-64.22741782 22.92201961 -64.06235471 20.15418955 -62 17 C-61.34 17 -60.68 17 -60 17 C-59.896875 16.236875 -59.79375 15.47375 -59.6875 14.6875 C-58.95288806 11.81583516 -58.3283935 10.76957906 -56 9 C-55.34 9 -54.68 9 -54 9 C-54 8.34 -54 7.68 -54 7 C-53.34 7 -52.68 7 -52 7 C-52 6.34 -52 5.68 -52 5 C-50.68 4.67 -49.36 4.34 -48 4 C-48 3.34 -48 2.68 -48 2 C-46.68 2 -45.36 2 -44 2 C-44 1.34 -44 0.68 -44 0 C-29.23142784 -2.00111672 -14.73853157 -2.74150746 0 0 Z M-33 20 C-33 20.66 -33 21.32 -33 22 C-33.99 22.33 -34.98 22.66 -36 23 C-36 23.66 -36 24.32 -36 25 C-35.34 25 -34.68 25 -34 25 C-34 25.66 -34 26.32 -34 27 C-27.71471637 30.14264181 -18.86485718 29.11548358 -12 29 C-12 28.34 -12 27.68 -12 27 C-11.01 26.67 -10.02 26.34 -9 26 C-9.86777408 22.45001514 -10.38859651 20.47920814 -13.3125 18.1875 C-20.62508397 14.95635824 -26.40059761 15.6003984 -33 20 Z " fill="#060606" transform="translate(476,517)"/>
<path d="M0 0 C31.35 0 62.7 0 95 0 C95 8.25 95 16.5 95 25 C78.665 25.495 78.665 25.495 62 26 C61.67 48.77 61.34 71.54 61 95 C60.34 95 59.68 95 59 95 C59 95.99 59 96.98 59 98 C58.34 98 57.68 98 57 98 C57 98.66 57 99.32 57 100 C48.42 100 39.84 100 31 100 C31 99.34 31 98.68 31 98 C30.34 98 29.68 98 29 98 C26.875 90.375 26.875 90.375 28 87 C28.09192787 85.4262461 28.12790623 83.84889674 28.12939453 82.27246094 C28.13412277 80.83516632 28.13412277 80.83516632 28.13894653 79.36883545 C28.1369223 78.3344635 28.13489807 77.30009155 28.1328125 76.234375 C28.13376923 75.16761536 28.13472595 74.10085571 28.13571167 73.00177002 C28.13639264 70.74222759 28.13454413 68.48268321 28.13037109 66.22314453 C28.12504272 62.77762401 28.13030803 59.33223509 28.13671875 55.88671875 C28.13605754 53.69010388 28.1347755 51.49348909 28.1328125 49.296875 C28.13483673 48.27059998 28.13686096 47.24432495 28.13894653 46.18695068 C28.12555171 42.06160262 28.09314334 38.05891229 27.42919922 33.98144531 C27 31 27 31 28 28 C24.39842204 26.37165514 21.4936341 25.72793589 17.55078125 25.62109375 C16.53822266 25.58693359 15.52566406 25.55277344 14.48242188 25.51757812 C13.43634766 25.49115234 12.39027344 25.46472656 11.3125 25.4375 C9.22514147 25.37771581 7.13788782 25.31410809 5.05078125 25.24609375 C4.12950439 25.22216553 3.20822754 25.1982373 2.2590332 25.17358398 C0 25 0 25 -2 24 C-2 23.34 -2 22.68 -2 22 C-2.66 22 -3.32 22 -4 22 C-4 16.06 -4 10.12 -4 4 C-3.34 4 -2.68 4 -2 4 C-2 3.34 -2 2.68 -2 2 C-1.34 2 -0.68 2 0 2 C0 1.34 0 0.68 0 0 Z " fill="#040404" transform="translate(226,492)"/>
<path d="M0 0 C9.24 0 18.48 0 28 0 C28 0.66 28 1.32 28 2 C28.66 2 29.32 2 30 2 C30 2.66 30 3.32 30 4 C30.66 4 31.32 4 32 4 C32 26.77 32 49.54 32 73 C31.34 73 30.68 73 30 73 C30 75.64 30 78.28 30 81 C29.34 81 28.68 81 28 81 C28 82.98 28 84.96 28 87 C27.34 87 26.68 87 26 87 C26 87.99 26 88.98 26 90 C25.34 90 24.68 90 24 90 C24 90.66 24 91.32 24 92 C22.68 92.33 21.36 92.66 20 93 C20 93.66 20 94.32 20 95 C19.34 95 18.68 95 18 95 C18 95.66 18 96.32 18 97 C13.07015675 99.03993514 9.42039575 100.40652968 4 100 C4 100.66 4 101.32 4 102 C-4.91 102 -13.82 102 -23 102 C-23 101.34 -23 100.68 -23 100 C-24.98 100 -26.96 100 -29 100 C-29 99.34 -29 98.68 -29 98 C-31.64 97.67 -34.28 97.34 -37 97 C-37 96.34 -37 95.68 -37 95 C-37.66 95 -38.32 95 -39 95 C-39 94.34 -39 93.68 -39 93 C-40.32 92.67 -41.64 92.34 -43 92 C-43 91.34 -43 90.68 -43 90 C-43.66 90 -44.32 90 -45 90 C-45 89.01 -45 88.02 -45 87 C-45.66 87 -46.32 87 -47 87 C-47 85.68 -47 84.36 -47 83 C-47.66 83 -48.32 83 -49 83 C-49 81.35 -49 79.7 -49 78 C-49.66 78 -50.32 78 -51 78 C-51 74.37 -51 70.74 -51 67 C-50.34 67 -49.68 67 -49 67 C-49 66.34 -49 65.68 -49 65 C-40.75 65 -32.5 65 -24 65 C-24 65.66 -24 66.32 -24 67 C-22.68 67.66 -21.36 68.32 -20 69 C-20 69.99 -20 70.98 -20 72 C-19.34 72.33 -18.68 72.66 -18 73 C-18 73.99 -18 74.98 -18 76 C-16.7625 76.165 -15.525 76.33 -14.25 76.5 C-13.55390625 76.5928125 -12.8578125 76.685625 -12.140625 76.78125 C-9.69541605 77.06777357 -9.69541605 77.06777357 -6 77 C-6 76.34 -6 75.68 -6 75 C-5.01 74.34 -4.02 73.68 -3 73 C-2.42251197 71.03638136 -2.42251197 71.03638136 -2.3125 68.875 C-2.209375 67.59625 -2.10625 66.3175 -2 65 C-1.34 65 -0.68 65 0 65 C0 55.1 0 45.2 0 35 C-0.66 35 -1.32 35 -2 35 C-2 24.11 -2 13.22 -2 2 C-1.34 2 -0.68 2 0 2 C0 1.34 0 0.68 0 0 Z " fill="#060606" transform="translate(589,492)"/>
<path d="M0 0 C0.70374756 -0.01289063 1.40749512 -0.02578125 2.13256836 -0.0390625 C10.07504488 -0.05387883 16.66860794 2.12505736 23.875 5.3125 C24.50664063 5.58964844 25.13828125 5.86679687 25.7890625 6.15234375 C27.32018903 6.82511147 28.84797051 7.50548402 30.375 8.1875 C30.375 8.8475 30.375 9.5075 30.375 10.1875 C31.11234375 10.43628906 31.8496875 10.68507813 32.609375 10.94140625 C35.61917858 12.29751832 37.3296359 13.77268985 39.625 16.125 C40.31078125 16.81464844 40.9965625 17.50429688 41.703125 18.21484375 C43.375 20.1875 43.375 20.1875 44.375 23.1875 C44.82746094 23.63996094 45.27992188 24.09242188 45.74609375 24.55859375 C47.771923 26.584423 49.00946304 28.77010972 50.4375 31.25 C51.96739834 33.90104522 53.20789375 36.02039375 55.375 38.1875 C47.785 38.1875 40.195 38.1875 32.375 38.1875 C32.375 68.2175 32.375 98.2475 32.375 129.1875 C30.02166204 124.48082409 30.20397962 122.3181114 30.375 117.1875 C28.395 116.1975 28.395 116.1975 26.375 115.1875 C27.365 114.8575 28.355 114.5275 29.375 114.1875 C29.705 108.5775 30.035 102.9675 30.375 97.1875 C28.065 97.1875 25.755 97.1875 23.375 97.1875 C21.45849609 95.72753906 21.45849609 95.72753906 20.375 93.1875 C20.10854614 90.23844907 20.00514618 87.49263409 20.0390625 84.546875 C20.02654471 82.8190067 20.01350735 81.0911421 20 79.36328125 C19.99608037 76.65334811 19.99996595 73.94378428 20.01464844 71.23388672 C20.02327354 68.6085001 20.00144123 65.98462851 19.9765625 63.359375 C19.98990631 62.56013611 20.00325012 61.76089722 20.01699829 60.93743896 C19.93931701 54.95307401 18.2544371 50.77712908 14.375 46.1875 C1.65899931 35.83151022 -16.2854673 35.87208612 -31.83837891 37.40576172 C-42.19514074 38.8490626 -49.65037018 42.39232549 -56.625 50.1875 C-57.285 51.1775 -57.945 52.1675 -58.625 53.1875 C-58.625 50.2175 -58.625 47.2475 -58.625 44.1875 C-57.965 44.1875 -57.305 44.1875 -56.625 44.1875 C-56.625 42.5375 -56.625 40.8875 -56.625 39.1875 C-55.965 39.1875 -55.305 39.1875 -54.625 39.1875 C-54.625 37.5375 -54.625 35.8875 -54.625 34.1875 C-53.965 34.1875 -53.305 34.1875 -52.625 34.1875 C-52.625 32.5375 -52.625 30.8875 -52.625 29.1875 C-51.965 29.1875 -51.305 29.1875 -50.625 29.1875 C-50.625 28.1975 -50.625 27.2075 -50.625 26.1875 C-49.965 26.1875 -49.305 26.1875 -48.625 26.1875 C-48.625 24.5375 -48.625 22.8875 -48.625 21.1875 C-47.965 21.1875 -47.305 21.1875 -46.625 21.1875 C-46.625 20.5275 -46.625 19.8675 -46.625 19.1875 C-45.965 19.1875 -45.305 19.1875 -44.625 19.1875 C-44.625 18.1975 -44.625 17.2075 -44.625 16.1875 C-43.965 16.1875 -43.305 16.1875 -42.625 16.1875 C-42.625 15.5275 -42.625 14.8675 -42.625 14.1875 C-41.305 13.8575 -39.985 13.5275 -38.625 13.1875 C-38.625 12.5275 -38.625 11.8675 -38.625 11.1875 C-37.965 11.1875 -37.305 11.1875 -36.625 11.1875 C-36.625 10.5275 -36.625 9.8675 -36.625 9.1875 C-34.645 8.8575 -32.665 8.5275 -30.625 8.1875 C-30.625 7.5275 -30.625 6.8675 -30.625 6.1875 C-29.305 6.1875 -27.985 6.1875 -26.625 6.1875 C-26.625 5.5275 -26.625 4.8675 -26.625 4.1875 C-23.985 3.8575 -21.345 3.5275 -18.625 3.1875 C-18.625 2.5275 -18.625 1.8675 -18.625 1.1875 C-12.40550703 0.39772311 -6.26293044 0.05479979 0 0 Z " fill="#368EF2" transform="translate(689.625,477.8125)"/>
<path d="M0 0 C1.27810547 -0.09087891 1.27810547 -0.09087891 2.58203125 -0.18359375 C5.7137851 0.56295627 7.15151122 1.91304004 9.13270569 4.41227722 C11.32422935 8.62003943 10.78823262 13.33013512 10.67578125 17.9609375 C10.66870651 19.06225006 10.66163177 20.16356262 10.65434265 21.29824829 C10.62643226 24.80369995 10.56369606 28.30753395 10.5 31.8125 C10.47491297 34.19398729 10.45210052 36.57549971 10.43164062 38.95703125 C10.38087458 44.78497342 10.28300728 50.60943373 10.1875 56.4375 C2.9275 56.4375 -4.3325 56.4375 -11.8125 56.4375 C-11.92741795 49.56796037 -12.02692273 42.70176701 -12.0871582 35.83203125 C-12.11227181 33.4963042 -12.14636928 31.16065549 -12.18969727 28.82519531 C-12.25048492 25.46399586 -12.27874212 22.10383715 -12.30078125 18.7421875 C-12.32658768 17.70134003 -12.3523941 16.66049255 -12.37898254 15.58810425 C-12.38210683 7.4760468 -12.38210683 7.4760468 -9.40698242 3.79345703 C-6.08958757 0.78104898 -4.38623232 0.21701 0 0 Z " fill="#2BBCF4" transform="translate(940.8125,535.5625)"/>
<path d="M0 0 C3.70337329 2.11621331 5.37380526 4.12951534 7 8 C7.43471046 11.26032844 7.37023349 14.52598812 7.375 17.8125 C7.39949219 18.68970703 7.42398438 19.56691406 7.44921875 20.47070312 C7.47634348 26.51499651 6.56403145 30.07854863 3 35 C-1.45093283 37.96728856 -5.78187992 37.75636001 -11 37 C-14.47049471 34.45024878 -16.33263238 31.91464987 -18 28 C-18.4343407 24.7187203 -18.37022763 21.43225096 -18.375 18.125 C-18.39949219 17.23941406 -18.42398438 16.35382812 -18.44921875 15.44140625 C-18.47448833 9.78944447 -17.8498794 6.43361563 -14 2 C-9.54422653 -0.97051564 -5.22557394 -0.62737491 0 0 Z " fill="#358DF0" transform="translate(769,536)"/>
<path d="M0 0 C0.9384375 -0.00515625 1.876875 -0.0103125 2.84375 -0.015625 C5.60484076 0.26048408 7.19312898 0.7323217 9.5 2.25 C12.17927341 6.26891012 11.65601248 8.49161923 11.5 13.25 C10.90687012 13.26458252 10.31374023 13.27916504 9.70263672 13.29418945 C-16.3437387 13.84380459 -16.3437387 13.84380459 -38.5 26.25 C-38.5 23.28 -38.5 20.31 -38.5 17.25 C-39.16 16.92 -39.82 16.59 -40.5 16.25 C-40.5 12.95 -40.5 9.65 -40.5 6.25 C-30.6 6.58 -20.7 6.91 -10.5 7.25 C-10.17 5.6 -9.84 3.95 -9.5 2.25 C-6.51158585 -0.00489431 -3.65878024 -0.02010319 0 0 Z M-37.5 22.25 C-36.5 24.25 -36.5 24.25 -36.5 24.25 Z " fill="#4292F0" transform="translate(669.5,532.75)"/>
<path d="M0 0 C3.80748106 0.03456857 5.44902971 0.14051698 8.8125 2.0625 C11.85983408 5.60133958 13.00230205 8.26304725 13.015625 12.9375 C13.01949219 14.24460937 13.01949219 14.24460937 13.0234375 15.578125 C13.01570312 16.48046875 13.00796875 17.3828125 13 18.3125 C13.00773438 19.21484375 13.01546875 20.1171875 13.0234375 21.046875 C13.02085937 21.91828125 13.01828125 22.7896875 13.015625 23.6875 C13.01336914 24.47898437 13.01111328 25.27046875 13.00878906 26.0859375 C12.72336112 28.54169493 11.97452681 30.18204224 10.75 32.3125 C6.54615793 30.91121931 5.6996904 27.99178144 3.8125 24.25 C3.45913574 23.5691333 3.10577148 22.8882666 2.74169922 22.18676758 C0.91033758 18.64531813 -0.86855112 15.07917885 -2.625 11.5 C-4.04245613 8.3141727 -4.04245613 8.3141727 -6.25 6.3125 C-6.4375 3.75 -6.4375 3.75 -6.25 1.3125 C-4.53310511 -0.40439489 -2.34121863 0.05946946 0 0 Z " fill="#2EB2F1" transform="translate(763.25,535.6875)"/>
<path d="M0 0 C0.58455882 9.9375 0.58455882 9.9375 -3 14 C-7.76937206 17.54645615 -12.57488613 17.35528216 -18.29296875 17.3984375 C-21 17 -21 17 -22.83203125 15.69140625 C-24.84853193 12.77118955 -24.47912861 10.41379134 -24 7 C-18.63640866 0.34174868 -7.99484021 -0.45253813 0 0 Z " fill="#2DB1EF" transform="translate(860,559)"/>
<path d="M0 0 C1.27230469 0.00902344 2.54460938 0.01804687 3.85546875 0.02734375 C5.31919922 0.04474609 5.31919922 0.04474609 6.8125 0.0625 C7.43626238 8.0154703 7.43626238 8.0154703 5.0625 12 C1.12416392 15.6101414 -1.85510441 16.37084506 -7.1875 16.4375 C-8.21875 16.46585938 -9.25 16.49421875 -10.3125 16.5234375 C-13.88474451 15.95071352 -15.0494276 14.93713322 -17.1875 12.0625 C-17.3125 8.5625 -17.3125 8.5625 -16.1875 5.0625 C-10.84465544 0.6488458 -6.77708853 -0.06217512 0 0 Z " fill="#358BEF" transform="translate(674.1875,559.9375)"/>
<path d="M0 0 C0.02578125 0.845625 0.0515625 1.69125 0.078125 2.5625 C0.43925736 9.78514713 1.25638452 14.79963686 5 21 C5.33 21.66 5.66 22.32 6 23 C-0.27 23 -6.54 23 -13 23 C-13 23.66 -13 24.32 -13 25 C-15.31 25 -17.62 25 -20 25 C-19.278125 24.443125 -18.55625 23.88625 -17.8125 23.3125 C-11.23878037 17.90744163 -6.09730423 11.85228925 -4.484375 3.25 C-4.32453125 2.5075 -4.1646875 1.765 -4 1 C-2 0 -2 0 0 0 Z " fill="#2CADE9" transform="translate(807,567)"/>
<path d="M0 0 C0.33 0 0.66 0 1 0 C1 30.03 1 60.06 1 91 C-1.35333796 86.29332409 -1.17102038 84.1306114 -1 79 C-2.32 78.34 -3.64 77.68 -5 77 C-3.515 76.505 -3.515 76.505 -2 76 C-0.85957245 60.84420762 -0.68911977 45.67403695 -0.46777344 30.48254395 C-0.41675087 27.03584632 -0.36149468 23.58921652 -0.30664062 20.14257812 C-0.20061426 13.4284401 -0.09866879 6.71424997 0 0 Z " fill="#2760A5" transform="translate(721,516)"/>
<path d="M0 0 C0.66 0 1.32 0 2 0 C2 21.78 2 43.56 2 66 C1.34 66 0.68 66 0 66 C0.00333092 64.86367378 0.00333092 64.86367378 0.00672913 63.70439148 C0.02675949 56.5679965 0.04198817 49.43161514 0.05181217 42.29519939 C0.05703255 38.62623076 0.06411489 34.95728535 0.07543945 31.28833008 C0.08629832 27.74812911 0.09228322 24.20795048 0.09487724 20.66773415 C0.09762633 18.65858345 0.1054336 16.64944175 0.11329651 14.64030457 C0.11337204 13.41926529 0.11344757 12.19822601 0.11352539 10.94018555 C0.115746 9.86318893 0.11796661 8.78619232 0.12025452 7.67655945 C0.1175537 4.89711299 0.1175537 4.89711299 -1 2 C-0.67 1.34 -0.34 0.68 0 0 Z " fill="#989898" transform="translate(323,489)"/>
<path d="M0 0 C0.33 0 0.66 0 1 0 C1 3.3 1 6.6 1 10 C1.66 10 2.32 10 3 10 C3 12.97 3 15.94 3 19 C2.34 19 1.68 19 1 19 C1 37.81 1 56.62 1 76 C0.67 76 0.34 76 0 76 C0 50.92 0 25.84 0 0 Z " fill="#BAE9FA" transform="translate(980,511)"/>
<path d="M0 0 C1.32 0.33 2.64 0.66 4 1 C2.54712339 2.33927721 1.08752741 3.67126847 -0.375 5 C-1.59316406 6.11375 -1.59316406 6.11375 -2.8359375 7.25 C-5 9 -5 9 -7 9 C-7.33 10.32 -7.66 11.64 -8 13 C-9.32 13.33 -10.64 13.66 -12 14 C-12 13.34 -12 12.68 -12 12 C-11.34 12 -10.68 12 -10 12 C-10 11.34 -10 10.68 -10 10 C-9.34 10 -8.68 10 -8 10 C-8 9.01 -8 8.02 -8 7 C-7.34 7 -6.68 7 -6 7 C-6 6.34 -6 5.68 -6 5 C-4.68 4.67 -3.36 4.34 -2 4 C-2 3.34 -2 2.68 -2 2 C-1.34 2 -0.68 2 0 2 C0 1.34 0 0.68 0 0 Z " fill="#8ABAF4" transform="translate(653,487)"/>
<path d="M0 0 C1.8125 0.875 1.8125 0.875 3.8125 3.875 C2.81669922 3.96587891 2.81669922 3.96587891 1.80078125 4.05859375 C-4.73658081 4.67363507 -4.73658081 4.67363507 -11.1875 5.875 C-3.38521863 -0.19344106 -3.38521863 -0.19344106 0 0 Z " fill="#2BA7E0" transform="translate(862.1875,586.125)"/>
<path d="M0 0 C3.77545388 1.09068668 6.47043472 1.9083091 9 5 C6.525 6.485 6.525 6.485 4 8 C4 7.34 4 6.68 4 6 C3.01 6 2.02 6 1 6 C1 5.34 1 4.68 1 4 C0.34 3.67 -0.32 3.34 -1 3 C-0.67 2.01 -0.34 1.02 0 0 Z " fill="#86D6F6" transform="translate(863,435)"/>
<path d="M0 0 C3.82448388 1.47480097 5.25042364 3.45294912 7.3125 6.9375 C7.84488281 7.81277344 8.37726562 8.68804687 8.92578125 9.58984375 C10 12 10 12 9 15 C7.99466333 13.37829621 6.99588093 11.75252763 6 10.125 C5.443125 9.22007812 4.88625 8.31515625 4.3125 7.3828125 C3 5 3 5 3 3 C2.01 2.67 1.02 2.34 0 2 C0 1.34 0 0.68 0 0 Z " fill="#34AAF7" transform="translate(733,499)"/>
<path d="M0 0 C1.66611905 -0.042721 3.33382885 -0.04063832 5 0 C6 1 6 1 6.09765625 3.94140625 C6.08605469 5.13636719 6.07445312 6.33132813 6.0625 7.5625 C6.05347656 8.76003906 6.04445313 9.95757813 6.03515625 11.19140625 C6.02355469 12.11824219 6.01195312 13.04507813 6 14 C3.59798496 9.80120206 3.84135851 6.75924459 4 2 C2.68 1.34 1.36 0.68 0 0 Z " fill="#CED8DD" transform="translate(716,593)"/>
<path d="M0 0 C1.32 1.65 2.64 3.3 4 5 C0.7 5 -2.6 5 -6 5 C-5.195625 4.360625 -4.39125 3.72125 -3.5625 3.0625 C-1.7249496 1.59396498 -1.7249496 1.59396498 0 0 Z " fill="#3488E9" transform="translate(683,585)"/>
<path d="M0 0 C2.88437779 1.29299694 4.87219421 2.65941363 7 5 C5.02 5 3.04 5 1 5 C0.67 5.66 0.34 6.32 0 7 C0 4.69 0 2.38 0 0 Z " fill="#3887E2" transform="translate(751,587)"/>
<path d="M0 0 C0.66 0 1.32 0 2 0 C2 4.62 2 9.24 2 14 C1.01 14.495 1.01 14.495 0 15 C0.01160156 14.31292969 0.02320313 13.62585938 0.03515625 12.91796875 C0.04417969 12.01691406 0.05320312 11.11585938 0.0625 10.1875 C0.07410156 9.29417969 0.08570313 8.40085937 0.09765625 7.48046875 C0.11009967 4.86586209 0.11009967 4.86586209 -1 2 C-0.67 1.34 -0.34 0.68 0 0 Z " fill="#939393" transform="translate(323,489)"/>
<path d="M0 0 C0.33 0 0.66 0 1 0 C1.04254356 1.99954746 1.04080783 4.00041636 1 6 C0 7 0 7 -2.28515625 7.09765625 C-3.65994141 7.08025391 -3.65994141 7.08025391 -5.0625 7.0625 C-5.98160156 7.05347656 -6.90070312 7.04445313 -7.84765625 7.03515625 C-8.55792969 7.02355469 -9.26820313 7.01195312 -10 7 C-10 6.67 -10 6.34 -10 6 C-7.36 5.67 -4.72 5.34 -2 5 C-2 4.34 -2 3.68 -2 3 C-1.34 3 -0.68 3 0 3 C0 2.01 0 1.02 0 0 Z " fill="#C3E8FB" transform="translate(691,471)"/>
<path d="M0 0 C0.66 0 1.32 0 2 0 C2 0.66 2 1.32 2 2 C2.66 2 3.32 2 4 2 C2.25 5.875 2.25 5.875 0 7 C0 4.69 0 2.38 0 0 Z " fill="#CBCBCB" transform="translate(353,517)"/>
<path d="M0 0 C0.66 0 1.32 0 2 0 C1.67 0.66 1.34 1.32 1 2 C0.67 1.34 0.34 0.68 0 0 Z " fill="#FFFFFF" transform="translate(486,561)"/>
<path d="" fill="#FFFFFF" transform="translate(0,0)"/>
<path d="" fill="#FFFFFF" transform="translate(0,0)"/>
</svg>
