<?xml version="1.0" encoding="UTF-8"?>
<!DOCTYPE svg PUBLIC "-//W3C//DTD SVG 1.1//EN" "http://www.w3.org/Graphics/SVG/1.1/DTD/svg11.dtd">
<svg xmlns="http://www.w3.org/2000/svg" version="1.1" width="500px" height="500px" style="shape-rendering:geometricPrecision; text-rendering:geometricPrecision; image-rendering:optimizeQuality; fill-rule:evenodd; clip-rule:evenodd" xmlns:xlink="http://www.w3.org/1999/xlink">
<g><path style="opacity:1" fill="#30b7f5" d="M 274.5,209.5 C 291.976,240.91 309.976,272.41 328.5,304C 294.168,304.5 259.835,304.667 225.5,304.5C 215.093,285.444 204.593,266.444 194,247.5C 187.07,239.284 178.237,234.618 167.5,233.5C 167.5,232.833 167.5,232.167 167.5,231.5C 172.443,205.055 188.11,188.889 214.5,183C 237.097,179.752 255.93,186.585 271,203.5C 272.421,205.405 273.588,207.405 274.5,209.5 Z"/></g>
<g><path style="opacity:1" fill="#3bc5f7" d="M 160.5,304.5 C 182.167,304.5 203.833,304.5 225.5,304.5C 259.835,304.667 294.168,304.5 328.5,304C 309.976,272.41 291.976,240.91 274.5,209.5C 301.308,202.601 322.808,210.267 339,232.5C 352.146,258.646 348.979,282.646 329.5,304.5C 273.001,305.831 216.668,305.831 160.5,304.5 Z"/></g>
<g><path style="opacity:1" fill="#cee7fb" d="M 167.5,231.5 C 167.5,232.167 167.5,232.833 167.5,233.5C 165.833,233.5 164.167,233.5 162.5,233.5C 164.028,232.691 165.694,232.024 167.5,231.5 Z"/></g>
<g><path style="opacity:1" fill="#388ff4" d="M 160.5,233.5 C 161.167,233.5 161.833,233.5 162.5,233.5C 164.167,233.5 165.833,233.5 167.5,233.5C 178.237,234.618 187.07,239.284 194,247.5C 204.593,266.444 215.093,285.444 225.5,304.5C 203.833,304.5 182.167,304.5 160.5,304.5C 160.167,304.5 159.833,304.5 159.5,304.5C 157.485,303.076 155.152,302.41 152.5,302.5C 135.664,295.51 127.997,282.844 129.5,264.5C 130.924,262.485 131.59,260.152 131.5,257.5C 131.5,257.167 131.5,256.833 131.5,256.5C 132.766,255.91 134.099,255.41 135.5,255C 135.043,254.586 134.709,254.086 134.5,253.5C 136.253,251.49 137.253,249.157 137.5,246.5C 138.5,244.833 139.833,243.5 141.5,242.5C 143.017,242.489 144.184,241.823 145,240.5C 145.308,241.308 145.808,241.975 146.5,242.5C 146.911,241.738 147.077,240.738 147,239.5C 148.049,240.517 149.216,240.684 150.5,240C 149.007,238.844 149.174,238.01 151,237.5C 154.308,236.239 157.475,234.906 160.5,233.5 Z"/></g>
<g><path style="opacity:1" fill="#5b9bf1" d="M 160.5,233.5 C 157.475,234.906 154.308,236.239 151,237.5C 149.174,238.01 149.007,238.844 150.5,240C 149.216,240.684 148.049,240.517 147,239.5C 147.077,240.738 146.911,241.738 146.5,242.5C 145.808,241.975 145.308,241.308 145,240.5C 144.184,241.823 143.017,242.489 141.5,242.5C 146.606,237.115 152.939,234.115 160.5,233.5 Z"/></g>
<g><path style="opacity:1" fill="#66a1f1" d="M 137.5,246.5 C 137.253,249.157 136.253,251.49 134.5,253.5C 134.709,254.086 135.043,254.586 135.5,255C 134.099,255.41 132.766,255.91 131.5,256.5C 132.498,252.495 134.498,249.161 137.5,246.5 Z"/></g>
<g><path style="opacity:1" fill="#84b3f1" d="M 131.5,257.5 C 131.59,260.152 130.924,262.485 129.5,264.5C 129.41,261.848 130.076,259.515 131.5,257.5 Z"/></g>
<g><path style="opacity:1" fill="#7dafef" d="M 152.5,302.5 C 155.152,302.41 157.485,303.076 159.5,304.5C 156.848,304.59 154.515,303.924 152.5,302.5 Z"/></g>
</svg>
